<?xml version="1.0" encoding="UTF-8" standalone="no" ?>
<!DOCTYPE svg PUBLIC "-//W3C//DTD SVG 1.1//EN" "http://www.w3.org/Graphics/SVG/1.1/DTD/svg11.dtd">
<svg xmlns="http://www.w3.org/2000/svg" xmlns:xlink="http://www.w3.org/1999/xlink" version="1.1" width="276.2917" height="79.80000000000001" xml:space="preserve">
<desc>Created with Fabric.js 1.6.0-rc.1</desc>
<defs></defs>
<g style="stroke: none; stroke-width: 1; stroke-dasharray: none; stroke-linecap: butt; stroke-linejoin: miter; stroke-miterlimit: 10; fill: none; fill-rule: nonzero; opacity: 1;" transform="translate(10 9.999999999999996) scale(1.09 0.52)" >
  <path d="m 247 135 c 27 -8 55 -15 84 -22 l 0 0 c -88 27 -157 66 -198 109 c -39.2 42 -54.3 91 -33.9 142 c 5.9 16 12.9 32 18.9 48 c 4 -1 7 -1 11 -2 C 92.4 416 57.2 421 23.7 426 C 18.1 410 12.7 395 7.36 380 C -11 328 6 278 46.6 237 C 88.5 195 159 158 247 135 l 0 0 z m 527 698 c 52 4 106 7 162 11 c 0 0 0 0 0 0 C 754 823 581 775 447 716 C 332 665 243 604 197 539 c -13 -18 -26 -36 -38 -54 c 3 0 6 0 10 -1 c -39 4 -76 7 -110.7 11 c 10.6 17 21.5 34 32.5 51 C 132 611 215 671 323 720 C 447 776 610 820 774 833 l 0 0" style="stroke: none; stroke-width: 1; stroke-dasharray: none; stroke-linecap: butt; stroke-linejoin: miter; stroke-miterlimit: 10; fill: #005826; fill-rule: evenodd; opacity: 1;" transform=" matrix(0.125 0 0 -0.125 0 115) " stroke-linecap="round" />
  <path d="m 445 81.8 c 33 -8.9 67 -18 103 -27 c 0 0 0 -0.1 0 0.1 c -107 33 -190 77.1 -238 125.1 c -46 46 -63 99 -36 154 c 8 18 17 35 26 52 c 4 0 8 -1 13 -1 c -45 6 -88 12 -129 18 c -7 -17 -14 -34 -21 -50 c -24 -56 -5 -109 42 -154 c 49 -47 133 -89 240 -117.2 l 0 0 z M 1170 864 c 70 5 150 10 220 16 c 0 0 0 -1 0 -1 C 1150 852 910 794 732 725 C 581 667 465 598 403 526 c -17 -21 -34 -41 -50 -60 c 4 0 8 -1 12 -1 c -48 4 -93 9 -136 13 c 14 18 28 37 43 56 c 55 72 161 139 301 195 c 164 65 379 117 597 135 l 0 0" style="stroke: none; stroke-width: 1; stroke-dasharray: none; stroke-linecap: butt; stroke-linejoin: miter; stroke-miterlimit: 10; fill: #005826; fill-rule: evenodd; opacity: 1;" transform=" matrix(0.125 0 0 -0.125 0 115) " stroke-linecap="round" />
  <path d="M 630 32.2 C 670 21.7 710 10.9 753 0 c 0 0 0 0.098 0 0.195 C 625 39.1 529 89 474 141 c -52 51 -71 108 -36 167 c 10 18 21 37 32 56 c 5 -1 10 -2 16 -2 c -54 7 -104 14 -152 20 c -10 -18 -19 -36 -27 -53 c -30 -59 -9 -116 44 -165 c 57 -51 153 -98.1 279 -131.8 l 0 0 z M 1590 896 c 90 7 190 14 290 21 c 0 0 0 0 0 0 C 1550 882 1240 814 1020 735 C 824 669 678 593 600 514 c -21 -22 -42 -44 -63 -65 c 5 0 10 -1 15 -1 c -58 5 -112 10 -162 15 c 17 19 34 39 52 60 c 69 78 201 153 375 215 c 203 74 483 135 773 158 l 0 0" style="stroke: none; stroke-width: 1; stroke-dasharray: none; stroke-linecap: butt; stroke-linejoin: miter; stroke-miterlimit: 10; fill: #bfb600; fill-rule: evenodd; opacity: 1;" transform=" matrix(0.125 0 0 -0.125 0 115) " stroke-linecap="round" />
</g>
  <g transform="translate(100.62 52.1) scale(1 0.67)">
   <text font-family="Mistress Script" font-size="40" font-style="italic" font-weight="bold" style="stroke: none; stroke-width: 1; stroke-dasharray: none; stroke-linecap: butt; stroke-linejoin: miter; stroke-miterlimit: 10; fill: #0a3313; fill-rule: nonzero; opacity: 1;" ><tspan x="-18.12" y="8.98" style="stroke: none; stroke-width: 0; stroke-dasharray: none; stroke-linecap: butt; stroke-linejoin: miter; stroke-miterlimit: 4; fill: #0a3313; fill-rule: ; opacity: 1;">S</tspan><tspan x="1.68" y="8.98" style="stroke: none; stroke-width: 0; stroke-dasharray: none; stroke-linecap: butt; stroke-linejoin: miter; stroke-miterlimit: 4; fill: #0a3313; fill-rule: ; opacity: 1;">.</tspan><tspan x="7.96" y="8.98" style="stroke: none; stroke-width: 0; stroke-dasharray: none; stroke-linecap: butt; stroke-linejoin: miter; stroke-miterlimit: 4; fill: #0a3313; fill-rule: ; opacity: 1;">I</tspan></text>
 </g>
</svg>